<svg xmlns="http://www.w3.org/2000/svg" xmlns:xlink="http://www.w3.org/1999/xlink" width="40" zoomAndPan="magnify" viewBox="0 0 30 30.000001" height="40" preserveAspectRatio="xMidYMid meet" version="1.0"><defs><g/><clipPath id="6deea7bef1"><path d="M 0.484375 0 L 29.515625 0 L 29.515625 29.03125 L 0.484375 29.03125 Z M 0.484375 0 " clip-rule="nonzero"/></clipPath></defs><g clip-path="url(#6deea7bef1)"><path fill="#ffffff" d="M 0.484375 0 L 29.515625 0 L 29.515625 36.289062 L 0.484375 36.289062 Z M 0.484375 0 " fill-opacity="1" fill-rule="nonzero"/><path fill="#ffffff" d="M 0.484375 0 L 29.515625 0 L 29.515625 29.03125 L 0.484375 29.03125 Z M 0.484375 0 " fill-opacity="1" fill-rule="nonzero"/><path fill="#ffffff" d="M 0.484375 0 L 29.515625 0 L 29.515625 29.03125 L 0.484375 29.03125 Z M 0.484375 0 " fill-opacity="1" fill-rule="nonzero"/></g><g fill="#000000" fill-opacity="1"><g transform="translate(4.887533, 26.584276)"><g><path d="M 18.265625 -21.75 C 18.265625 -21.457031 18.125 -21.3125 17.84375 -21.3125 L 5.671875 -21.3125 C 5.566406 -21.3125 5.515625 -21.253906 5.515625 -21.140625 L 5.515625 -12.96875 C 5.515625 -12.851562 5.566406 -12.796875 5.671875 -12.796875 L 14.171875 -12.796875 C 14.453125 -12.796875 14.59375 -12.648438 14.59375 -12.359375 L 14.59375 -11.15625 C 14.59375 -10.863281 14.453125 -10.71875 14.171875 -10.71875 L 5.671875 -10.71875 C 5.566406 -10.71875 5.515625 -10.664062 5.515625 -10.5625 L 5.515625 -2.234375 C 5.515625 -2.128906 5.566406 -2.078125 5.671875 -2.078125 L 17.84375 -2.078125 C 18.125 -2.078125 18.265625 -1.929688 18.265625 -1.640625 L 18.265625 -0.4375 C 18.265625 -0.144531 18.125 0 17.84375 0 L 3.578125 0 C 3.285156 0 3.140625 -0.144531 3.140625 -0.4375 L 3.140625 -22.953125 C 3.140625 -23.242188 3.285156 -23.390625 3.578125 -23.390625 L 17.84375 -23.390625 C 18.125 -23.390625 18.265625 -23.242188 18.265625 -22.953125 Z M 18.265625 -21.75 "/></g></g></g></svg>